<svg xmlns="http://www.w3.org/2000/svg" xmlns:xlink="http://www.w3.org/1999/xlink" width="413" height="396.5" viewBox="0 0 413 396.5">
  <defs>
    <filter id="Ellipse_99" x="151" y="0" width="99" height="99.5" filterUnits="userSpaceOnUse">
      <feOffset dy="8" input="SourceAlpha"/>
      <feGaussianBlur stdDeviation="2.5" result="blur"/>
      <feFlood flood-opacity="0.161"/>
      <feComposite operator="in" in2="blur"/>
      <feComposite in="SourceGraphic"/>
    </filter>
    <filter id="Ellipse_100" x="314" y="115" width="99" height="99.5" filterUnits="userSpaceOnUse">
      <feOffset dy="8" input="SourceAlpha"/>
      <feGaussianBlur stdDeviation="2.5" result="blur-2"/>
      <feFlood flood-opacity="0.161"/>
      <feComposite operator="in" in2="blur-2"/>
      <feComposite in="SourceGraphic"/>
    </filter>
    <filter id="Ellipse_101" x="263" y="290" width="99" height="99.5" filterUnits="userSpaceOnUse">
      <feOffset dy="8" input="SourceAlpha"/>
      <feGaussianBlur stdDeviation="2.5" result="blur-3"/>
      <feFlood flood-opacity="0.161"/>
      <feComposite operator="in" in2="blur-3"/>
      <feComposite in="SourceGraphic"/>
    </filter>
    <filter id="Ellipse_102" x="61" y="297" width="99" height="99.5" filterUnits="userSpaceOnUse">
      <feOffset dy="8" input="SourceAlpha"/>
      <feGaussianBlur stdDeviation="2.5" result="blur-4"/>
      <feFlood flood-opacity="0.161"/>
      <feComposite operator="in" in2="blur-4"/>
      <feComposite in="SourceGraphic"/>
    </filter>
    <filter id="Ellipse_103" x="0" y="115" width="99" height="99.5" filterUnits="userSpaceOnUse">
      <feOffset dy="8" input="SourceAlpha"/>
      <feGaussianBlur stdDeviation="2.5" result="blur-5"/>
      <feFlood flood-opacity="0.161"/>
      <feComposite operator="in" in2="blur-5"/>
      <feComposite in="SourceGraphic"/>
    </filter>
  </defs>
  <g id="Group_2127" data-name="Group 2127" transform="translate(-1231.5 -1573)">
    <g id="Group_2119" data-name="Group 2119" transform="translate(-12482 9493)">
      <path id="Path_2541" data-name="Path 2541" d="M432.952,524.37c-1.786-.014-3.593-.026-5.368-.081l.055-1.789c1.756.054,3.552.079,5.313.08s3.572-.029,5.36-.087l.058,1.789C436.563,524.341,434.74,524.37,432.952,524.37Zm-16.131-.756c-3.564-.338-7.164-.795-10.7-1.359l.282-1.768c3.5.558,7.058,1.011,10.585,1.345Zm32.31-.019-.17-1.782c3.525-.338,7.086-.795,10.583-1.358l.285,1.768c-3.534.569-7.134,1.031-10.7,1.372Zm-53.6-3.382c-3.49-.791-7-1.707-10.436-2.722l.507-1.717c3.4,1,6.872,1.91,10.324,2.693Zm74.882-.045-.4-1.745c3.461-.789,6.933-1.7,10.321-2.706l.51,1.717c-3.424,1.017-6.935,1.936-10.433,2.734ZM374.858,514.1c-3.367-1.237-6.737-2.6-10.014-4.049l.725-1.637c3.242,1.434,6.575,2.782,9.907,4.006Zm116.226-.07-.619-1.68c3.311-1.22,6.633-2.567,9.872-4l.727,1.637c-3.275,1.453-6.633,2.815-9.98,4.048Zm-135.969-8.665c-3.169-1.654-6.334-3.437-9.405-5.3l.928-1.532c3.039,1.844,6.17,3.607,9.305,5.244Zm155.651-.066-.829-1.587c3.128-1.636,6.252-3.4,9.282-5.241l.93,1.53c-3.065,1.863-6.221,3.644-9.384,5.3Zm-174.1-11.124c-2.935-2.048-5.844-4.221-8.647-6.455l1.116-1.4c2.773,2.212,5.651,4.361,8.555,6.387Zm192.512-.064-1.026-1.467c2.9-2.029,5.778-4.178,8.544-6.387l1.117,1.4c-2.8,2.233-5.7,4.4-8.635,6.455ZM319.8,480.727c-2.653-2.408-5.262-4.932-7.752-7.5l1.285-1.247c2.464,2.54,5.045,5.037,7.671,7.421Zm226.218-.062-1.2-1.325c2.619-2.379,5.2-4.877,7.666-7.424l1.285,1.245c-2.493,2.575-5.1,5.1-7.746,7.5ZM304.793,465.251c-2.323-2.724-4.588-5.557-6.733-8.421l1.433-1.074c2.122,2.834,4.363,5.638,6.662,8.332Zm256.231-.074-1.362-1.161c2.3-2.7,4.54-5.5,6.662-8.342l1.434,1.072c-2.145,2.868-4.41,5.705-6.734,8.431ZM291.879,448c-1.959-3-3.843-6.1-5.6-9.206l1.559-.881c1.74,3.076,3.6,6.141,5.543,9.108Zm282.062-.1-1.5-.977c1.939-2.973,3.8-6.043,5.544-9.127l1.56.879c-1.76,3.117-3.645,6.221-5.6,9.224ZM281.277,429.246c-1.558-3.222-3.03-6.534-4.374-9.844l1.658-.673c1.331,3.273,2.787,6.55,4.328,9.737Zm303.268-.14-1.612-.778c1.54-3.193,3-6.478,4.329-9.767l1.659.671c-1.347,3.325-2.818,6.647-4.376,9.873Zm-311.38-19.821c-1.133-3.4-2.167-6.879-3.076-10.339l1.732-.455c.9,3.423,1.922,6.864,3.042,10.227Zm319.486-.19-1.7-.563c1.114-3.36,2.134-6.8,3.03-10.232l1.733.453c-.907,3.467-1.938,6.947-3.064,10.342ZM267.688,388.432c-.684-3.513-1.263-7.094-1.72-10.646l1.776-.229c.453,3.514,1.025,7.058,1.7,10.533Zm330.417-.2-1.757-.339c.671-3.474,1.24-7.019,1.689-10.536l1.776.227c-.454,3.554-1.03,7.137-1.709,10.648ZM264.932,367.052c-.229-3.569-.348-7.2-.352-10.781l1.79,0c0,3.548.121,7.136.348,10.667Zm335.9-.2-1.787-.114c.223-3.527.336-7.116.336-10.665v-.393h1.79v.386c0,3.592-.115,7.218-.339,10.784ZM266.694,345.6l-1.787-.11c.222-3.576.562-7.188,1.01-10.737l1.776.224C267.249,338.492,266.914,342.067,266.694,345.6Zm332.33-.587c-.233-3.539-.581-7.112-1.037-10.619l1.775-.231c.461,3.545.814,7.155,1.049,10.733ZM269.37,324.444l-1.758-.338c.675-3.514,1.475-7.053,2.377-10.52l1.733.45C270.829,317.466,270.039,320.967,269.37,324.444Zm326.9-.577c-.682-3.479-1.486-6.977-2.388-10.4l1.731-.456c.913,3.459,1.725,7,2.415,10.511ZM274.74,303.8l-1.7-.561c1.124-3.4,2.375-6.815,3.719-10.143l1.66.671C277.089,297.061,275.851,300.437,274.74,303.8Zm316.09-.558c-1.124-3.36-2.372-6.727-3.708-10.005l1.657-.676c1.352,3.314,2.613,6.717,3.749,10.113ZM282.737,283.995l-1.614-.776c1.553-3.228,3.232-6.45,4.991-9.574l1.56.879C285.935,277.614,284.273,280.8,282.737,283.995Zm300.045-.488c-1.542-3.179-3.209-6.354-4.958-9.437l1.558-.883c1.767,3.116,3.452,6.325,5.01,9.54ZM293.208,265.388l-1.5-.977c1.953-3,4.029-5.98,6.172-8.853l1.435,1.07C297.195,259.471,295.14,262.418,293.208,265.388Zm279.062-.421c-1.937-2.959-4-5.9-6.126-8.732l1.432-1.074c2.151,2.866,4.234,5.835,6.192,8.825Zm-266.3-16.687L304.6,247.12c2.319-2.728,4.757-5.417,7.246-7.992l1.288,1.244C310.674,242.92,308.262,245.581,305.967,248.28Zm253.507-.369c-2.3-2.691-4.722-5.344-7.19-7.885l1.283-1.248c2.5,2.567,4.941,5.248,7.267,7.968Zm-238.68-14.972-1.206-1.324c2.649-2.413,5.408-4.77,8.2-7l1.119,1.4c-2.762,2.21-5.491,4.541-8.113,6.928Zm223.809-.325c-2.625-2.377-5.362-4.7-8.137-6.909l1.115-1.4c2.8,2.231,5.57,4.58,8.223,6.983Zm-207.16-13-1.027-1.466c2.93-2.053,5.965-4.038,9.021-5.9l.931,1.529C343.345,215.617,340.342,217.582,337.443,219.612Zm190.461-.285c-2.915-2.029-5.927-3.986-8.955-5.818l.927-1.532c3.06,1.851,6.106,3.83,9.051,5.88Zm-172.258-10.8-.831-1.586c3.165-1.66,6.428-3.24,9.7-4.695l.728,1.636C362,205.316,358.777,206.879,355.646,208.522Zm153.992-.246c-3.144-1.637-6.384-3.192-9.63-4.624l.723-1.638c3.281,1.447,6.556,3.02,9.734,4.674Zm-134.531-8.416-.622-1.679c3.357-1.242,6.8-2.391,10.231-3.414l.511,1.716c-3.4,1.012-6.8,2.149-10.121,3.377Zm114.99-.2c-3.328-1.217-6.737-2.342-10.133-3.341l.505-1.718c3.433,1.01,6.88,2.147,10.244,3.378Zm-94.551-5.89-.4-1.745c3.483-.8,7.044-1.494,10.585-2.068l.287,1.768C402.515,192.29,398.991,192.978,395.546,193.767Zm74.089-.13c-3.452-.778-6.978-1.454-10.479-2.009l.281-1.769c3.539.561,7.1,1.244,10.592,2.031ZM416.6,190.351l-.173-1.782c3.555-.345,7.175-.58,10.761-.7l.059,1.789c-3.548.118-7.13.351-10.647.692Zm31.97-.055c-3.522-.329-7.106-.549-10.649-.655l.053-1.789c3.581.107,7.2.329,10.763.662Z" transform="translate(13487.752 -8070.178)" fill="#d0cde1"/>
      <g transform="matrix(1, 0, 0, 1, 13713.5, -7920)" filter="url(#Ellipse_99)">
        <circle id="Ellipse_99-2" data-name="Ellipse 99" cx="42" cy="42" r="42" transform="translate(158.5)" fill="#fff"/>
      </g>
      <g transform="matrix(1, 0, 0, 1, 13713.5, -7920)" filter="url(#Ellipse_100)">
        <circle id="Ellipse_100-2" data-name="Ellipse 100" cx="42" cy="42" r="42" transform="translate(321.5 115)" fill="#fff"/>
      </g>
      <g transform="matrix(1, 0, 0, 1, 13713.5, -7920)" filter="url(#Ellipse_101)">
        <circle id="Ellipse_101-2" data-name="Ellipse 101" cx="42" cy="42" r="42" transform="translate(270.5 290)" fill="#fff"/>
      </g>
      <g transform="matrix(1, 0, 0, 1, 13713.5, -7920)" filter="url(#Ellipse_102)">
        <circle id="Ellipse_102-2" data-name="Ellipse 102" cx="42" cy="42" r="42" transform="translate(68.5 297)" fill="#fff"/>
      </g>
      <g transform="matrix(1, 0, 0, 1, 13713.5, -7920)" filter="url(#Ellipse_103)">
        <circle id="Ellipse_103-2" data-name="Ellipse 103" cx="42" cy="42" r="42" transform="translate(7.5 115)" fill="#fff"/>
      </g>
      <path id="Path_2542" data-name="Path 2542" d="M461.45,186.664H446.774a5.032,5.032,0,0,1-5.032-5.032V166.956a.419.419,0,0,0-.419-.419H431.68a6.709,6.709,0,0,0-6.709,6.709V206.79a6.709,6.709,0,0,0,6.709,6.709h23.481a6.709,6.709,0,0,0,6.709-6.709V187.083a.419.419,0,0,0-.419-.419Zm-9.644,16.772H435.034a1.677,1.677,0,0,1,0-3.354h16.772a1.677,1.677,0,0,1,0,3.354Zm0-8.386H435.034a1.677,1.677,0,0,1,0-3.354h16.772a1.677,1.677,0,0,1,0,3.354Z" transform="translate(13470.942 -8067.944)" fill="#00a8e8"/>
      <path id="Path_2543" data-name="Path 2543" d="M462.886,183.1l-15.075-15.075a.21.21,0,0,0-.357.148v13.608a1.677,1.677,0,0,0,1.677,1.677h13.608a.21.21,0,0,0,.148-.357Z" transform="translate(13468.586 -8068.094)" fill="#00a8e8"/>
      <path id="Path_2544" data-name="Path 2544" d="M577.117,507.508a2.23,2.23,0,1,0,1.577.652A2.23,2.23,0,0,0,577.117,507.508Z" transform="translate(13455.231 -8103.678)" fill="#00a8e8"/>
      <path id="Path_2545" data-name="Path 2545" d="M586.889,497.371v-.008a1.7,1.7,0,0,0-1.264-1.278c-2.49-.607-6.406.04-10.746,1.778a34.561,34.561,0,0,0-11.243,7.12,26.794,26.794,0,0,0-2.469,2.826,10.95,10.95,0,0,0-4.893.786c-4.824,2.123-6.2,7.556-6.568,9.786a2.089,2.089,0,0,0,2.272,2.423h.011l5.373-.586c.007.068.014.131.02.189a2.871,2.871,0,0,0,.827,1.731l2.622,2.624a2.863,2.863,0,0,0,1.73.828l.18.019-.585,5.367v.011a2.089,2.089,0,0,0,1.863,2.292q.1.01.193.011a2.1,2.1,0,0,0,.347-.028c2.243-.361,7.673-1.722,9.79-6.571a11.048,11.048,0,0,0,.789-4.874,26.3,26.3,0,0,0,2.836-2.469,34.311,34.311,0,0,0,7.127-11.155C586.83,503.9,587.48,499.956,586.889,497.371Zm-8.944,14.61a4.91,4.91,0,1,1,0-6.944l0,0a4.871,4.871,0,0,1,.052,6.888Z" transform="translate(13457.873 -8102.458)" fill="#00a8e8"/>
      <path id="Path_2546" data-name="Path 2546" d="M560.686,528.447a1.337,1.337,0,0,0-.919.223c-.534.365-1.07.726-1.612,1.078a1.247,1.247,0,0,1-1.754-1.671l1.015-1.754a1.337,1.337,0,0,0-1.267-2.081,5.118,5.118,0,0,0-2.977,1.459c-.306.307-1.236,1.237-1.736,4.784a29.921,29.921,0,0,0-.269,3.072,1.337,1.337,0,0,0,1.3,1.37h.068a30.059,30.059,0,0,0,3.074-.267c3.548-.5,4.479-1.432,4.784-1.738a5.053,5.053,0,0,0,1.453-2.986,1.337,1.337,0,0,0-1.164-1.489Z" transform="translate(13457.717 -8105.431)" fill="#00a8e8"/>
      <path id="Path_2547" data-name="Path 2547" d="M327.78,548.166h-3.048a2.286,2.286,0,0,1-2.286-2.286V532.161a2.286,2.286,0,0,1,2.286-2.286h3.048a2.286,2.286,0,0,1,2.286,2.286v13.718A2.286,2.286,0,0,1,327.78,548.166Z" transform="translate(13481.688 -8106.022)" fill="#00a8e8"/>
      <path id="Path_2548" data-name="Path 2548" d="M351.617,547.1h-3.048a2.286,2.286,0,0,1-2.286-2.286V521.945a2.286,2.286,0,0,1,2.286-2.286h3.048a2.286,2.286,0,0,1,2.286,2.286v22.863A2.286,2.286,0,0,1,351.617,547.1Z" transform="translate(13479.189 -8104.952)" fill="#00a8e8"/>
      <path id="Path_2549" data-name="Path 2549" d="M363.535,545.846h-3.048a2.286,2.286,0,0,1-2.286-2.286V510.027a2.286,2.286,0,0,1,2.286-2.286h3.048a2.286,2.286,0,0,1,2.286,2.286V543.56a2.286,2.286,0,0,1-2.286,2.286Z" transform="translate(13477.94 -8103.703)" fill="#00a8e8"/>
      <path id="Path_2550" data-name="Path 2550" d="M339.7,544.954H336.65a2.286,2.286,0,0,1-2.286-2.286V501.513a2.286,2.286,0,0,1,2.286-2.286H339.7a2.286,2.286,0,0,1,2.286,2.286v41.154a2.286,2.286,0,0,1-2.287,2.286Z" transform="translate(13480.438 -8102.81)" fill="#00a8e8"/>
      <path id="Path_2551" data-name="Path 2551" d="M627.251,319.189l-2.178-2.179a2.669,2.669,0,0,0-3.765-.01l-15.142,13.974a2.828,2.828,0,0,0-.947,1.924,2.679,2.679,0,0,0,.768,2l3.253,3.289.006.006a2.693,2.693,0,0,0,1.893.786h.1a2.8,2.8,0,0,0,1.933-.932l14.072-15.073a2.669,2.669,0,0,0,.016-3.775Z" transform="translate(13452.053 -8083.632)" fill="#00a8e8"/>
      <path id="Path_2552" data-name="Path 2552" d="M646.314,313.074l-.026-.026-2.859-2.829a1.79,1.79,0,0,0-1.275-.522,1.826,1.826,0,0,0-1.067.345c0-.036.005-.071.008-.1a3.05,3.05,0,0,0-.434-2.1,21.534,21.534,0,0,0-2.069-2.4l-.007-.007a22.579,22.579,0,0,0-7.234-4.666,11.64,11.64,0,0,0-4.428-.872,8.438,8.438,0,0,0-5.4,1.892,10,10,0,0,0-1.183,1.353,1.335,1.335,0,0,0,1.556,2.03,6.2,6.2,0,0,1,.716-.219,5.3,5.3,0,0,1,1.539-.1,6.471,6.471,0,0,1,2.977,1.092,4.288,4.288,0,0,1,1.523,3.427,8.9,8.9,0,0,1-1.668,2.876A1.335,1.335,0,0,0,627.1,314l2.87,2.87a1.335,1.335,0,0,0,1.835.052c.812-.725,2.048-1.818,2.48-2.085a3.106,3.106,0,0,1,1.226-.484,1.6,1.6,0,0,1,.942.2.1.1,0,0,1-.026.079l-.152.144-.025.023a1.8,1.8,0,0,0,0,2.539l.009.009,2.858,2.829a1.789,1.789,0,0,0,1.275.521,1.81,1.81,0,0,0,1.27-.517l4.629-4.573.047-.049A1.824,1.824,0,0,0,646.314,313.074Z" transform="translate(13450.494 -8081.92)" fill="#00a8e8"/>
      <path id="Path_2553" data-name="Path 2553" d="M283.846,316.4a1.67,1.67,0,0,1-1.181-2.851l3.829-3.829-3.829-3.829a1.67,1.67,0,1,1,2.362-2.362l5.01,5.01a1.67,1.67,0,0,1,0,2.362l-5.01,5.01A1.665,1.665,0,0,1,283.846,316.4Z" transform="translate(13485.908 -8082.25)" fill="#00a8e8"/>
      <path id="Path_2554" data-name="Path 2554" d="M254,322a1.67,1.67,0,0,1-1.67-1.67v-1.67a10.07,10.07,0,0,1,10.015-10.02h21.716a1.67,1.67,0,1,1,0,3.34H262.348a6.72,6.72,0,0,0-6.68,6.685v1.665A1.67,1.67,0,0,1,254,322Z" transform="translate(13489.036 -8082.836)" fill="#00a8e8"/>
      <path id="Path_2555" data-name="Path 2555" d="M268.336,336.926a1.664,1.664,0,0,1-1.181-.489l-5.01-5.01a1.67,1.67,0,0,1,0-2.362l5.01-5.01a1.67,1.67,0,0,1,2.362,2.362l-3.829,3.829,3.829,3.829a1.67,1.67,0,0,1-1.181,2.851Z" transform="translate(13488.059 -8084.4)" fill="#00a8e8"/>
      <path id="Path_2556" data-name="Path 2556" d="M265.19,331.329a1.67,1.67,0,0,1,0-3.34H286.9a6.72,6.72,0,0,0,6.68-6.685v-1.665a1.67,1.67,0,1,1,3.34,0v1.67a10.07,10.07,0,0,1-10.015,10.02Z" transform="translate(13487.863 -8083.814)" fill="#00a8e8"/>
    </g>
    <g id="Group_2125" data-name="Group 2125" transform="translate(1406.771 1735.625)">
      <path id="Path_8" data-name="Path 8" d="M0,18.561H51.307L43.957,5.683,31.832,0Z" transform="translate(11.988 36.585)" fill="#fff"/>
      <path id="Path_9" data-name="Path 9" d="M0,30.707,17.677,0l24.1,11.367L8.508,30.707Z" transform="translate(0 24.46)" fill="#fff"/>
      <path id="Path_10" data-name="Path 10" d="M0,22.98,12.616,0l23.51,39.219Z" transform="translate(18.918 0) rotate(1)" fill="#fff"/>
    </g>
  </g>
</svg>
