<svg xmlns="http://www.w3.org/2000/svg" xmlns:xlink="http://www.w3.org/1999/xlink" width="114" height="98" viewBox="0 0 114 98">
  <defs>
    <filter id="Ellipse_29" x="32" y="0" width="58" height="58" filterUnits="userSpaceOnUse">
      <feOffset dy="3" input="SourceAlpha"/>
      <feGaussianBlur stdDeviation="3" result="blur"/>
      <feFlood flood-opacity="0.161"/>
      <feComposite operator="in" in2="blur"/>
      <feComposite in="SourceGraphic"/>
    </filter>
    <filter id="Ellipse_30" x="32" y="40" width="58" height="58" filterUnits="userSpaceOnUse">
      <feOffset dy="3" input="SourceAlpha"/>
      <feGaussianBlur stdDeviation="3" result="blur-2"/>
      <feFlood flood-opacity="0.161"/>
      <feComposite operator="in" in2="blur-2"/>
      <feComposite in="SourceGraphic"/>
    </filter>
    <filter id="Path_2353" x="0" y="19" width="64" height="64" filterUnits="userSpaceOnUse">
      <feOffset dx="-3" dy="5" input="SourceAlpha"/>
      <feGaussianBlur stdDeviation="4" result="blur-3"/>
      <feFlood flood-opacity="0.161"/>
      <feComposite operator="in" in2="blur-3"/>
      <feComposite in="SourceGraphic"/>
    </filter>
    <filter id="Ellipse_8" x="56" y="20" width="58" height="58" filterUnits="userSpaceOnUse">
      <feOffset dy="3" input="SourceAlpha"/>
      <feGaussianBlur stdDeviation="3" result="blur-4"/>
      <feFlood flood-opacity="0.161"/>
      <feComposite operator="in" in2="blur-4"/>
      <feComposite in="SourceGraphic"/>
    </filter>
    <filter id="Ellipse_7" x="31" y="20" width="58" height="58" filterUnits="userSpaceOnUse">
      <feOffset dy="3" input="SourceAlpha"/>
      <feGaussianBlur stdDeviation="3" result="blur-5"/>
      <feFlood flood-opacity="0.161"/>
      <feComposite operator="in" in2="blur-5"/>
      <feComposite in="SourceGraphic"/>
    </filter>
  </defs>
  <g id="Group_1996" data-name="Group 1996" transform="translate(10242 -4668)">
    <g transform="matrix(1, 0, 0, 1, -10242, 4668)" filter="url(#Ellipse_29)">
      <circle id="Ellipse_29-2" data-name="Ellipse 29" cx="20" cy="20" r="20" transform="translate(41 6)" fill="#202020"/>
    </g>
    <g transform="matrix(1, 0, 0, 1, -10242, 4668)" filter="url(#Ellipse_30)">
      <circle id="Ellipse_30-2" data-name="Ellipse 30" cx="20" cy="20" r="20" transform="translate(41 46)" fill="#202020"/>
    </g>
    <g transform="matrix(1, 0, 0, 1, -10242, 4668)" filter="url(#Path_2353)">
      <path id="Path_2353-2" data-name="Path 2353" d="M20,0A20,20,0,1,1,0,20,20,20,0,0,1,20,0Z" transform="translate(15 26)" fill="#00a8e8"/>
    </g>
    <g transform="matrix(1, 0, 0, 1, -10242, 4668)" filter="url(#Ellipse_8)">
      <circle id="Ellipse_8-2" data-name="Ellipse 8" cx="20" cy="20" r="20" transform="translate(65 26)" fill="#00a8e8"/>
    </g>
    <g transform="matrix(1, 0, 0, 1, -10242, 4668)" filter="url(#Ellipse_7)">
      <circle id="Ellipse_7-2" data-name="Ellipse 7" cx="20" cy="20" r="20" transform="translate(40 26)" fill="#fff"/>
    </g>
  </g>
</svg>
