<svg id="Instagram" xmlns="http://www.w3.org/2000/svg" width="44.267" height="44.267" viewBox="0 0 44.267 44.267">
  <path id="Path_3" data-name="Path 3" d="M22.134,3.935a67.867,67.867,0,0,1,8.853.246,11.407,11.407,0,0,1,4.181.738A8.637,8.637,0,0,1,39.349,9.1a11.407,11.407,0,0,1,.738,4.181c0,2.213.246,2.951.246,8.853a67.867,67.867,0,0,1-.246,8.853,11.407,11.407,0,0,1-.738,4.181,8.637,8.637,0,0,1-4.181,4.181,11.407,11.407,0,0,1-4.181.738c-2.213,0-2.951.246-8.853.246a67.867,67.867,0,0,1-8.853-.246A11.407,11.407,0,0,1,9.1,39.349a8.637,8.637,0,0,1-4.181-4.181,11.407,11.407,0,0,1-.738-4.181c0-2.213-.246-2.951-.246-8.853a67.867,67.867,0,0,1,.246-8.853A11.407,11.407,0,0,1,4.919,9.1,8.833,8.833,0,0,1,6.64,6.64,4.158,4.158,0,0,1,9.1,4.919a11.407,11.407,0,0,1,4.181-.738,67.867,67.867,0,0,1,8.853-.246m0-3.935a72.666,72.666,0,0,0-9.1.246,15.183,15.183,0,0,0-5.41.984A9.627,9.627,0,0,0,3.689,3.689,9.627,9.627,0,0,0,1.23,7.624a11.205,11.205,0,0,0-.984,5.41A72.666,72.666,0,0,0,0,22.134a72.666,72.666,0,0,0,.246,9.1,15.183,15.183,0,0,0,.984,5.41,9.627,9.627,0,0,0,2.459,3.935,9.628,9.628,0,0,0,3.935,2.459,15.183,15.183,0,0,0,5.41.984,72.665,72.665,0,0,0,9.1.246,72.665,72.665,0,0,0,9.1-.246,15.183,15.183,0,0,0,5.41-.984,10.318,10.318,0,0,0,6.394-6.394,15.183,15.183,0,0,0,.984-5.41c0-2.459.246-3.2.246-9.1a72.665,72.665,0,0,0-.246-9.1,15.183,15.183,0,0,0-.984-5.41,9.628,9.628,0,0,0-2.459-3.935A9.627,9.627,0,0,0,36.644,1.23a15.183,15.183,0,0,0-5.41-.984A72.665,72.665,0,0,0,22.134,0m0,10.821A11.131,11.131,0,0,0,10.821,22.134,11.313,11.313,0,1,0,22.134,10.821m0,18.691a7.246,7.246,0,0,1-7.378-7.378,7.246,7.246,0,0,1,7.378-7.378,7.246,7.246,0,0,1,7.378,7.378,7.246,7.246,0,0,1-7.378,7.378m11.8-21.888a2.705,2.705,0,1,0,2.705,2.705,2.729,2.729,0,0,0-2.705-2.705" fill="#fff" fill-rule="evenodd"/>
</svg>
