<svg xmlns="http://www.w3.org/2000/svg" width="44.267" height="44.267" viewBox="0 0 44.267 44.267">
  <path id="linkedin_1_" data-name="linkedin (1)" d="M37.714,37.723H31.159V27.451c0-2.449-.05-5.6-3.416-5.6-3.418,0-3.94,2.665-3.94,5.421V37.723H17.248V16.6h6.3V19.48h.085a6.908,6.908,0,0,1,6.216-3.412c6.642,0,7.87,4.371,7.87,10.062V37.723ZM9.844,13.71A3.807,3.807,0,1,1,13.651,9.9,3.8,3.8,0,0,1,9.844,13.71Zm3.287,24.013H6.557V16.6h6.574ZM40.993,0H3.267A3.227,3.227,0,0,0,0,3.189V41.078a3.226,3.226,0,0,0,3.267,3.189H40.988a3.239,3.239,0,0,0,3.279-3.189V3.189A3.24,3.24,0,0,0,40.988,0Z" fill="#fff"/>
</svg>
