<svg xmlns="http://www.w3.org/2000/svg" xmlns:xlink="http://www.w3.org/1999/xlink" width="63" height="60" viewBox="0 0 63 60">
  <defs>
    <filter id="Path_2353" x="0" y="0" width="34" height="34" filterUnits="userSpaceOnUse">
      <feOffset dx="-3" dy="5" input="SourceAlpha"/>
      <feGaussianBlur stdDeviation="4" result="blur"/>
      <feFlood flood-opacity="0.161"/>
      <feComposite operator="in" in2="blur"/>
      <feComposite in="SourceGraphic"/>
    </filter>
    <filter id="Ellipse_8" x="35" y="1" width="28" height="28" filterUnits="userSpaceOnUse">
      <feOffset dy="3" input="SourceAlpha"/>
      <feGaussianBlur stdDeviation="3" result="blur-2"/>
      <feFlood flood-opacity="0.161"/>
      <feComposite operator="in" in2="blur-2"/>
      <feComposite in="SourceGraphic"/>
    </filter>
    <filter id="Ellipse_7" x="21" y="1" width="28" height="28" filterUnits="userSpaceOnUse">
      <feOffset dy="3" input="SourceAlpha"/>
      <feGaussianBlur stdDeviation="3" result="blur-3"/>
      <feFlood flood-opacity="0.161"/>
      <feComposite operator="in" in2="blur-3"/>
      <feComposite in="SourceGraphic"/>
    </filter>
    <filter id="Path_2353-2" x="0" y="13" width="34" height="34" filterUnits="userSpaceOnUse">
      <feOffset dx="-3" dy="5" input="SourceAlpha"/>
      <feGaussianBlur stdDeviation="4" result="blur-4"/>
      <feFlood flood-opacity="0.161"/>
      <feComposite operator="in" in2="blur-4"/>
      <feComposite in="SourceGraphic"/>
    </filter>
    <filter id="Ellipse_8-2" x="35" y="14" width="28" height="28" filterUnits="userSpaceOnUse">
      <feOffset dy="3" input="SourceAlpha"/>
      <feGaussianBlur stdDeviation="3" result="blur-5"/>
      <feFlood flood-opacity="0.161"/>
      <feComposite operator="in" in2="blur-5"/>
      <feComposite in="SourceGraphic"/>
    </filter>
    <filter id="Ellipse_7-2" x="21" y="14" width="28" height="28" filterUnits="userSpaceOnUse">
      <feOffset dy="3" input="SourceAlpha"/>
      <feGaussianBlur stdDeviation="3" result="blur-6"/>
      <feFlood flood-opacity="0.161"/>
      <feComposite operator="in" in2="blur-6"/>
      <feComposite in="SourceGraphic"/>
    </filter>
    <filter id="Path_2353-3" x="0" y="26" width="34" height="34" filterUnits="userSpaceOnUse">
      <feOffset dx="-3" dy="5" input="SourceAlpha"/>
      <feGaussianBlur stdDeviation="4" result="blur-7"/>
      <feFlood flood-opacity="0.161"/>
      <feComposite operator="in" in2="blur-7"/>
      <feComposite in="SourceGraphic"/>
    </filter>
    <filter id="Ellipse_8-3" x="35" y="27" width="28" height="28" filterUnits="userSpaceOnUse">
      <feOffset dy="3" input="SourceAlpha"/>
      <feGaussianBlur stdDeviation="3" result="blur-8"/>
      <feFlood flood-opacity="0.161"/>
      <feComposite operator="in" in2="blur-8"/>
      <feComposite in="SourceGraphic"/>
    </filter>
    <filter id="Ellipse_7-3" x="21" y="27" width="28" height="28" filterUnits="userSpaceOnUse">
      <feOffset dy="3" input="SourceAlpha"/>
      <feGaussianBlur stdDeviation="3" result="blur-9"/>
      <feFlood flood-opacity="0.161"/>
      <feComposite operator="in" in2="blur-9"/>
      <feComposite in="SourceGraphic"/>
    </filter>
  </defs>
  <g id="Group_2140" data-name="Group 2140" transform="translate(-229 -13)">
    <g id="Group_2137" data-name="Group 2137">
      <g transform="matrix(1, 0, 0, 1, 229, 13)" filter="url(#Path_2353)">
        <path id="Path_2353-4" data-name="Path 2353" d="M5,0A5,5,0,1,1,0,5,5,5,0,0,1,5,0Z" transform="translate(15 7)" fill="#00a8e8"/>
      </g>
      <g transform="matrix(1, 0, 0, 1, 229, 13)" filter="url(#Ellipse_8)">
        <circle id="Ellipse_8-4" data-name="Ellipse 8" cx="5" cy="5" r="5" transform="translate(44 7)" fill="#00a8e8"/>
      </g>
      <g transform="matrix(1, 0, 0, 1, 229, 13)" filter="url(#Ellipse_7)">
        <circle id="Ellipse_7-4" data-name="Ellipse 7" cx="5" cy="5" r="5" transform="translate(30 7)" fill="#fff"/>
      </g>
    </g>
    <g id="Group_2138" data-name="Group 2138" transform="translate(0 13)">
      <g transform="matrix(1, 0, 0, 1, 229, 0)" filter="url(#Path_2353-2)">
        <path id="Path_2353-5" data-name="Path 2353" d="M5,0A5,5,0,1,1,0,5,5,5,0,0,1,5,0Z" transform="translate(15 20)" fill="#fff"/>
      </g>
      <g transform="matrix(1, 0, 0, 1, 229, 0)" filter="url(#Ellipse_8-2)">
        <circle id="Ellipse_8-5" data-name="Ellipse 8" cx="5" cy="5" r="5" transform="translate(44 20)" fill="#fff"/>
      </g>
      <g transform="matrix(1, 0, 0, 1, 229, 0)" filter="url(#Ellipse_7-2)">
        <circle id="Ellipse_7-5" data-name="Ellipse 7" cx="5" cy="5" r="5" transform="translate(30 20)" fill="#00a8e8"/>
      </g>
    </g>
    <g id="Group_2139" data-name="Group 2139" transform="translate(0 26)">
      <g transform="matrix(1, 0, 0, 1, 229, -13)" filter="url(#Path_2353-3)">
        <path id="Path_2353-6" data-name="Path 2353" d="M5,0A5,5,0,1,1,0,5,5,5,0,0,1,5,0Z" transform="translate(15 33)" fill="#00a8e8"/>
      </g>
      <g transform="matrix(1, 0, 0, 1, 229, -13)" filter="url(#Ellipse_8-3)">
        <circle id="Ellipse_8-6" data-name="Ellipse 8" cx="5" cy="5" r="5" transform="translate(44 33)" fill="#00a8e8"/>
      </g>
      <g transform="matrix(1, 0, 0, 1, 229, -13)" filter="url(#Ellipse_7-3)">
        <circle id="Ellipse_7-6" data-name="Ellipse 7" cx="5" cy="5" r="5" transform="translate(30 33)" fill="#fff"/>
      </g>
    </g>
  </g>
</svg>
