<svg xmlns="http://www.w3.org/2000/svg" width="28" height="28" viewBox="0 0 28 28">
  <g id="person" transform="translate(-0.001)">
    <g id="Group_1991" data-name="Group 1991" transform="translate(0.001)">
      <path id="Path_2352" data-name="Path 2352" d="M14,0A14,14,0,1,0,28,14,14,14,0,0,0,14,0ZM3.8,19.273C3.8,14.9,7.644,14.9,8.5,13.757l.1-.521A4.18,4.18,0,0,1,6.551,9.454c0-2.254,1.466-4.082,3.275-4.082A3.411,3.411,0,0,1,12.909,8.09a4.985,4.985,0,0,0-3.152,4.875,5.424,5.424,0,0,0,1.674,4.025c-.167.086-.353.173-.513.248a7.194,7.194,0,0,0-2.841,2.036H3.8Zm10.241,3.51H7.978c0-4.373,3.841-4.372,4.693-5.516l.1-.521a4.18,4.18,0,0,1-2.043-3.781c0-2.254,1.466-4.082,3.275-4.082s3.275,1.828,3.275,4.082a4.194,4.194,0,0,1-2.012,3.767l.111.593c.935,1.088,4.648,1.159,4.648,5.459h-5.98Zm5.88-3.51h0a7.2,7.2,0,0,0-2.841-2.036c-.165-.077-.348-.163-.512-.247a5.437,5.437,0,0,0,1.674-4.025A4.985,4.985,0,0,0,15.094,8.09a3.411,3.411,0,0,1,3.084-2.718c1.809,0,3.275,1.828,3.275,4.082a4.194,4.194,0,0,1-2.012,3.767l.111.593c.935,1.088,4.648,1.159,4.648,5.459Z" transform="translate(-0.001)" fill="#fff"/>
    </g>
  </g>
</svg>
