<svg xmlns="http://www.w3.org/2000/svg" xmlns:xlink="http://www.w3.org/1999/xlink" width="237.5" height="237.502" viewBox="0 0 237.5 237.502">
  <defs>
    <filter id="Path_2352" x="0" y="0" width="237.5" height="237.502" filterUnits="userSpaceOnUse">
      <feOffset dx="-6" dy="7" input="SourceAlpha"/>
      <feGaussianBlur stdDeviation="3" result="blur"/>
      <feFlood flood-opacity="0.161"/>
      <feComposite operator="in" in2="blur"/>
      <feComposite in="SourceGraphic"/>
    </filter>
  </defs>
  <g id="person" transform="translate(15 2)">
    <g id="Group_1991" data-name="Group 1991">
      <g transform="matrix(1, 0, 0, 1, -15, -2)" filter="url(#Path_2352)">
        <path id="Path_2352-2" data-name="Path 2352" d="M109.75,0A109.751,109.751,0,1,0,219.5,109.748,109.75,109.75,0,0,0,109.75,0ZM29.8,151.089c0-34.285,30.11-34.278,36.792-43.242l.765-4.088C57.972,99,51.345,87.531,51.345,74.115c0-17.673,11.5-32,25.674-32,11.164,0,20.637,8.9,24.172,21.305-14.2,4.513-24.707,19.912-24.707,38.217,0,12.6,4.968,24.189,13.124,31.551-1.31.672-2.766,1.357-4.019,1.943-6.577,3.085-15.694,7.375-22.271,15.959H29.8Zm80.281,27.518H62.534c0-34.284,30.11-34.274,36.792-43.239l.765-4.088c-9.387-4.76-16.014-16.227-16.014-29.643,0-17.673,11.5-32,25.674-32s25.674,14.329,25.674,32c0,13.3-6.509,24.7-15.771,29.531l.871,4.648c7.331,8.53,36.439,9.086,36.439,42.792H110.084Zm46.1-27.516h0c-6.579-8.583-15.7-12.872-22.273-15.957-1.294-.607-2.729-1.281-4.012-1.94,8.149-7.371,13.123-18.983,13.123-31.557,0-18.3-10.5-33.7-24.7-38.213,3.533-12.407,13.006-21.307,24.172-21.307,14.179,0,25.674,14.329,25.674,32,0,13.3-6.509,24.7-15.771,29.531l.871,4.648c7.331,8.528,36.439,9.084,36.439,42.794Z" transform="translate(15 2)" fill="#00a8e8"/>
      </g>
    </g>
  </g>
</svg>
