<svg xmlns="http://www.w3.org/2000/svg" width="54.105" height="37.813" viewBox="0 0 54.105 37.813">
  <path id="youtube" d="M52.98,9.455a6.781,6.781,0,0,0-4.709-4.709c-4.217-1.13-21.19-1.13-21.19-1.13s-16.93-.023-21.19,1.13A6.781,6.781,0,0,0,1.182,9.455,70.47,70.47,0,0,0,.005,22.546,70.468,70.468,0,0,0,1.182,35.588,6.781,6.781,0,0,0,5.891,40.3c4.213,1.132,21.19,1.132,21.19,1.132s16.928,0,21.19-1.132a6.781,6.781,0,0,0,4.709-4.709,70.469,70.469,0,0,0,1.128-13.042A70.467,70.467,0,0,0,52.98,9.455ZM21.664,30.645V14.423l14.127,8.123Z" transform="translate(-0.005 -3.616)" fill="#fff"/>
</svg>
